<?xml version="1.0" encoding="UTF-8" standalone="no"?>
<svg
   xmlns:dc="http://purl.org/dc/elements/1.1/"
   xmlns:cc="http://creativecommons.org/ns#"
   xmlns:rdf="http://www.w3.org/1999/02/22-rdf-syntax-ns#"
   xmlns:svg="http://www.w3.org/2000/svg"
   xmlns="http://www.w3.org/2000/svg"
   xmlns:sodipodi="http://sodipodi.sourceforge.net/DTD/sodipodi-0.dtd"
   xmlns:inkscape="http://www.inkscape.org/namespaces/inkscape"
   version="1.0"
   id="Layer_1"
   x="0px"
   y="0px"
   width="642.59998"
   height="573.8562"
   viewBox="0 0 642.59998 573.8562"
   enable-background="new 0 0 1400 980"
   xml:space="preserve"
   sodipodi:docname="login_vector.svg"
   inkscape:version="1.0.2-2 (e86c870879, 2021-01-15)"><metadata
   id="metadata1467"><rdf:RDF><cc:Work
       rdf:about=""><dc:format>image/svg+xml</dc:format><dc:type
         rdf:resource="http://purl.org/dc/dcmitype/StillImage" /><dc:title /></cc:Work></rdf:RDF></metadata><defs
   id="defs1465" /><sodipodi:namedview
   pagecolor="#ffffff"
   bordercolor="#666666"
   borderopacity="1"
   objecttolerance="10"
   gridtolerance="10"
   guidetolerance="10"
   inkscape:pageopacity="0"
   inkscape:pageshadow="2"
   inkscape:window-width="1920"
   inkscape:window-height="1001"
   id="namedview1463"
   showgrid="false"
   fit-margin-top="0"
   fit-margin-left="0"
   fit-margin-right="0"
   fit-margin-bottom="3"
   inkscape:zoom="0.8131728"
   inkscape:cx="223.6682"
   inkscape:cy="332.20016"
   inkscape:window-x="-9"
   inkscape:window-y="-9"
   inkscape:window-maximized="1"
   inkscape:current-layer="XMLID_50_"
   inkscape:document-rotation="0" />
<g
   id="XMLID_50_"
   transform="translate(-290.5,-229.4)">
	
	<ellipse
   style="fill:#666666;fill-opacity:0.207477;stroke:none;stroke-width:2.39546;stroke-linejoin:round;paint-order:stroke fill markers"
   id="path984"
   cx="595.47821"
   cy="748.96985"
   rx="292.96451"
   ry="35.331669" /><g
   id="XMLID_43_">
		<g
   id="XMLID_379_">
			<path
   id="XMLID_376_"
   fill="#ac8457"
   d="m 653.8,459.2 c 0,0 8.7,30.8 17.8,91.1 l -17.8,4 c 0,0 -11.1,-73.7 -20.1,-95.1 z" />
			<path
   id="XMLID_375_"
   fill="#ac8457"
   d="m 512.7,442.7 c 0,0 -23.9,35.2 -30.8,51.2 0,0 14.4,25.3 49,39.4 l 5.4,-14 -28.7,-27.1 27,-43.7 z" />
			<polygon
   id="XMLID_374_"
   fill="#dba97f"
   points="639.8,729.2 630.8,729.2 627.7,714.9 637.1,714.9 " />
			<g
   id="XMLID_94_">
				<polygon
   id="XMLID_91_"
   fill="#ca527b"
   points="677.2,588.3 677.2,512 608.6,506.8 608.6,571.7 " />
				<polygon
   id="XMLID_92_"
   fill="#bcbec0"
   points="677.2,588.3 677.2,512 685.3,508.8 685.3,585 " />
				<polygon
   id="XMLID_93_"
   fill="#f1f2f2"
   points="616.7,503.5 685.3,508.8 677.2,512 608.6,506.8 " />
			</g>
			<path
   id="XMLID_373_"
   fill="#092e1c"
   d="m 687.8,749.2 h -57.1 v -3.8 l 0.1,-16.1 h 9 c 0,0 34.3,6.1 45.2,16.1 1.3,1.2 2.3,2.5 2.8,3.8 z" />
			<path
   id="XMLID_372_"
   fill="#3c5527"
   d="m 644.3,729.2 -3.2,6.9 6.5,1.9 3.2,-7.5 c 0,0.1 -2.3,-2.1 -6.5,-1.3 z" />
			<path
   id="XMLID_371_"
   fill="#3c5527"
   d="m 652.2,731.2 -3.2,6.9 6.5,1.9 3.2,-7.5 c 0,0.1 -2.3,-2.2 -6.5,-1.3 z" />
			<path
   id="XMLID_370_"
   fill="#3c5527"
   d="m 687.8,749.2 h -57.1 v -3.8 H 685 c 1.3,1.2 2.3,2.5 2.8,3.8 z" />
			<polygon
   id="XMLID_369_"
   fill="#dba97f"
   points="563.8,729.2 572.8,729.2 572.8,714.9 562.6,714.9 " />
			<polygon
   id="XMLID_368_"
   fill="#092e1c"
   points="555.9,717 576.5,717 577.3,540.1 549.2,537.4 " />
			<polygon
   id="XMLID_366_"
   fill="#092e1c"
   points="620.9,717 642.9,717 618.8,537.4 595.2,545.2 " />
			<path
   id="XMLID_365_"
   fill="#092e1c"
   d="m 577.3,749.2 h -61.4 c 0.5,-1.3 1.5,-2.6 2.8,-3.8 10.9,-10 45.2,-16.1 45.2,-16.1 h 9 l 3.6,16.1 z" />
			<path
   id="XMLID_364_"
   fill="#3c5527"
   d="m 559.3,729.2 3.2,6.9 -6.5,1.9 -3.2,-7.5 c 0,0.1 2.4,-2.1 6.5,-1.3 z" />
			<path
   id="XMLID_363_"
   fill="#3c5527"
   d="m 551.4,731.2 3.2,6.9 -6.5,1.9 -3.2,-7.5 c 0,0.1 2.4,-2.2 6.5,-1.3 z" />
			<path
   id="XMLID_362_"
   fill="#3c5527"
   d="m 577.3,749.2 h -61.4 c 0.5,-1.3 1.5,-2.6 2.8,-3.8 h 57.8 z" />
			<path
   id="XMLID_361_"
   fill="#092e1c"
   d="m 539.8,533.4 c 21.3,61.9 94,39 91.2,0.6 -34.1,-18.7 -77.3,-12.3 -91.2,-0.6 z" />
			<path
   id="XMLID_166_"
   fill="#a0cb66"
   d="m 635.5,534.9 c -30,6.4 -81.3,4.5 -99.1,-1.6 l 1.9,-79.9 0.4,-18.7 c 0,-17.6 11.1,-32.7 26.6,-38.7 2.1,-0.8 4.3,-1.5 6.6,-1.9 2.7,-0.6 5.5,-0.8 8.3,-0.8 h 10.7 c 3.4,0 6.6,0.4 9.7,1.2 1.4,0.4 2.8,0.8 4.2,1.3 0.1,0 0.2,0.1 0.4,0.1 0,0 0,0 0,0 0.2,0.1 0.3,0.1 0.5,0.2 15.6,6 26.7,21.1 26.7,38.8 l 1,33.3 z" />
			<path
   id="XMLID_154_"
   fill="#a0cb66"
   d="m 571.8,394.1 v 0 c -2.8,2.4 -5.2,4.8 -7.3,7.1 C 548.4,419.2 552,434 552,434 l -13.8,19.4 -11.6,16.3 -25.8,-15.4 c 0,0 11.4,-21.8 24.9,-38.9 11.9,-15.1 30.6,-19.5 40.1,-20.8 3.7,-0.5 6,-0.5 6,-0.5 z" />
			<path
   id="XMLID_155_"
   fill="#a0cb66"
   d="m 662.8,474.3 -25.3,7.8 -4.1,-13.9 -10.6,-36.2 c 0,0 4.2,-27.6 -17.2,-35.9 -0.2,-0.1 -0.3,-0.1 -0.5,-0.2 -0.1,0 -0.2,-0.1 -0.4,-0.1 -2,-0.7 -4.2,-1.2 -6.6,-1.6 0,0 0.9,0.1 2.4,0.3 1.1,0.2 2.6,0.5 4.3,0.8 11.5,2.6 34.5,10.5 43.5,33.2 10.8,27 14.5,45.8 14.5,45.8 z" />
			<path
   id="XMLID_336_"
   fill="#ac8457"
   d="m 536.3,519.3 c 0,0 1,-7.5 13.2,-7.8 12.2,-0.2 8.1,13.7 4.7,18.2 -3.4,4.5 -10.3,-1.7 -14,6.6 0,0 -4.1,2.2 -9.2,-3 0,0 -7.5,-28.3 5.3,-14 z" />
			<g
   id="XMLID_89_">
				<path
   id="XMLID_131_"
   fill="#947249"
   d="m 540.3,344.3 v 0 c -5.6,0 -10.1,-4.6 -10.1,-10.1 v -12 c 0,-5.6 4.6,-10.1 10.1,-10.1 v 0 c 5.6,0 10.1,4.6 10.1,10.1 v 12 c 0.1,5.5 -4.5,10.1 -10.1,10.1 z" />
				<path
   id="XMLID_2_"
   fill="#947249"
   d="m 631.8,344.3 v 0 c -5.6,0 -10.1,-4.6 -10.1,-10.1 v -12 c 0,-5.6 4.6,-10.1 10.1,-10.1 v 0 c 5.6,0 10.1,4.6 10.1,10.1 v 12 c 0,5.5 -4.6,10.1 -10.1,10.1 z" />
				<path
   id="XMLID_130_"
   fill="#ac8457"
   d="m 597,396.3 h -21.8 c -0.5,0 -1,-0.4 -1,-1 V 366 c 0,-0.5 0.4,-1 1,-1 H 597 c 0.5,0 1,0.4 1,1 v 29.3 c -0.1,0.5 -0.5,1 -1,1 z" />
				<path
   id="XMLID_129_"
   fill="#947249"
   d="m 586.3,391.7 h -0.5 c -6.7,0 -12.1,-5.5 -12.1,-12.1 v -3.5 c 0,-6.7 5.5,-12.1 12.1,-12.1 h 0.5 c 6.7,0 12.1,5.5 12.1,12.1 v 3.5 c 0.1,6.7 -5.4,12.1 -12.1,12.1 z" />
				<path
   id="XMLID_128_"
   fill="#ac8457"
   d="m 588.6,385.2 h -6.5 c -20.4,0 -41.8,-16.7 -41.8,-37.2 v -57.2 c 0,-20.4 16.7,-37.2 37.2,-37.2 h 17.1 c 20.4,0 37.2,16.7 37.2,37.2 V 342 c 0,23.7 -19.5,43.2 -43.2,43.2 z" />
				<path
   id="XMLID_126_"
   fill="#352312"
   d="m 565.6,329.9 v 0 c -1.6,0 -2.9,-1.3 -2.9,-2.9 v -4 c 0,-1.6 1.3,-2.9 2.9,-2.9 v 0 c 1.6,0 2.9,1.3 2.9,2.9 v 3.9 c 0,1.6 -1.3,3 -2.9,3 z" />
				<path
   id="XMLID_125_"
   fill="#352312"
   d="m 608.6,329.9 v 0 c -1.6,0 -2.9,-1.3 -2.9,-2.9 v -4 c 0,-1.6 1.3,-2.9 2.9,-2.9 v 0 c 1.6,0 2.9,1.3 2.9,2.9 v 3.9 c 0.1,1.6 -1.2,3 -2.9,3 z" />
				<path
   id="XMLID_124_"
   fill="#572000"
   d="m 576.5,304.5 c 0,0 -13.1,-7.6 -25.1,4.3 l -2.6,-5.2 c 0,0 9.1,-13.6 27.6,-5.4 v 6.3 z" />
				<path
   id="XMLID_123_"
   fill="#572000"
   d="m 595.1,304 c 0,0 12.5,-8.6 25.3,2.4 l 2.1,-5.4 c 0,0 -10.2,-12.9 -28,-3.2 z" />
				<path
   id="XMLID_122_"
   fill="#947249"
   d="m 587.3,332 c 0,0 9.1,10.3 -3.3,12.2 0.1,0.1 17.3,0.1 3.3,-12.2 z" />
				<ellipse
   id="XMLID_121_"
   fill="#b78c5c"
   cx="558"
   cy="339.79999"
   rx="7.5"
   ry="4.5" />
				<ellipse
   id="XMLID_120_"
   fill="#b78c5c"
   cx="616.09998"
   cy="339.79999"
   rx="7.5"
   ry="4.5" />
				<path
   id="XMLID_106_"
   fill="#ffffff"
   d="m 577.3,358.5 c 0,0 11.8,9.5 21.7,-1.1 0,-0.1 -8.4,2.3 -21.7,1.1 z" />
				<path
   id="XMLID_105_"
   fill="#572000"
   d="m 640.9,301.5 c 0.3,0.6 0.4,1.4 0.4,2.1 0,2.1 -1.2,3.9 -3,4.8 0.6,0.7 1,1.6 1,2.6 0,2.4 -1.9,4.3 -4.3,4.3 -0.1,0 -0.1,0 -0.2,0 -1.6,4.8 -3.1,7.6 -3.1,7.6 0,0 0,-0.1 0,-0.1 -0.4,-1 -3.6,-9.5 -5,-25.9 -1.8,-0.5 -3.1,-2.1 -3.1,-4.1 0,-1.5 0.7,-2.7 1.8,-3.5 -2.2,-0.6 -3.9,-2.7 -3.9,-5.1 0,-0.1 0,-0.2 0,-0.4 -1.5,1.4 -3.4,2.3 -5.6,2.3 -4,0 -7.3,-2.9 -7.9,-6.7 -1.2,1.6 -3.2,2.7 -5.4,2.7 -3,0 -5.5,-2 -6.4,-4.7 h -0.1 c -0.8,2 -2.7,3.3 -5,3.3 -2.1,0 -4,-1.2 -4.8,-3 -1.3,2.8 -4.1,4.7 -7.3,4.7 -2.6,0 -4.9,-1.3 -6.4,-3.2 -1.7,3 -4.9,5 -8.5,5 -2.5,0 -4.7,-1 -6.5,-2.5 -0.5,3.2 -3.3,5.6 -6.6,5.6 -0.4,0 -0.9,-0.1 -1.3,-0.1 0.4,0.7 0.7,1.5 0.7,2.4 0,2 -1.4,3.7 -3.3,4.1 -0.6,10.1 -2.2,25.4 -6.9,31.2 0,0 0,-0.1 -0.1,-0.2 -0.3,-0.6 -1.2,-2.6 -2.2,-5.5 -2.7,-0.3 -4.7,-2.6 -4.7,-5.3 0,-0.9 0.2,-1.8 0.6,-2.5 -3.5,-0.9 -6,-4 -6,-7.7 0,-1.7 0.5,-3.3 1.4,-4.6 -2.4,-1 -4.1,-3.4 -4.1,-6.2 0,-2.6 1.5,-4.9 3.7,-6 -1.4,-1 -2.3,-2.6 -2.3,-4.4 0,-2.1 1.2,-3.9 2.9,-4.8 -1,-1 -1.6,-2.3 -1.6,-3.8 0,-1.7 0.8,-3.3 2.1,-4.2 -0.5,-1 -0.7,-2.1 -0.7,-3.3 0,-4.4 3.6,-8 8,-8 0.2,0 0.5,0 0.7,0.1 -1,-1.3 -1.6,-3 -1.6,-4.8 0,-4.4 3.6,-8 8,-8 0.7,0 1.4,0.1 2,0.3 0.6,-3.8 3.9,-6.7 7.9,-6.7 1.3,0 2.5,0.3 3.5,0.8 1,-3.4 4,-5.8 7.7,-5.8 1.6,0 3.2,0.5 4.5,1.4 1.4,-3.7 5,-6.3 9.2,-6.3 3.9,0 7.3,2.3 8.9,5.6 0.8,-2.9 3.4,-5 6.5,-5 3.4,0 6.1,2.4 6.6,5.6 1.3,-0.8 2.8,-1.3 4.4,-1.3 4,0 7.3,3 7.9,6.8 0.8,-0.3 1.6,-0.5 2.5,-0.5 3,0 5.5,2 6.4,4.7 0.5,-0.2 1.1,-0.3 1.6,-0.3 1.5,0 2.8,0.6 3.8,1.6 1,1 1.6,2.3 1.6,3.8 h 0.1 c 4.4,0 8,3.6 8,8 0,1.9 -0.7,3.6 -1.8,4.9 0.1,0 0.2,0 0.3,0 3,0 5.4,2.4 5.4,5.4 0,1.6 -0.8,3.1 -1.9,4.1 2.5,1.4 4.3,4 4.3,7.1 0,2.9 -1.5,5.3 -3.7,6.8 3.2,1.1 5.5,4 5.5,7.6 0.3,3.2 -1.7,6 -4.6,7.2 z" />
				<path
   id="XMLID_81_"
   fill="#431000"
   d="m 631.7,322.8 c -0.4,-1 -3.6,-9.5 -5,-25.9 -1.8,-0.5 -3.1,-2.1 -3.1,-4.1 0,-1.5 0.7,-2.7 1.8,-3.5 -2.2,-0.6 -3.9,-2.7 -3.9,-5.1 0,-0.1 0,-0.2 0,-0.4 -1.5,1.4 -3.4,2.3 -5.6,2.3 -4,0 -7.3,-2.9 -7.9,-6.7 -1.2,1.6 -3.2,2.7 -5.4,2.7 -3,0 -5.5,-2 -6.4,-4.7 h -0.1 c -0.8,2 -2.7,3.3 -5,3.3 -2.1,0 -4,-1.2 -4.8,-3 -1.3,2.8 -4.1,4.7 -7.3,4.7 -2.6,0 -4.9,-1.3 -6.4,-3.2 -1.7,3 -4.9,5 -8.5,5 -2.5,0 -4.7,-1 -6.5,-2.5 -0.5,3.2 -3.3,5.6 -6.6,5.6 -0.4,0 -0.9,-0.1 -1.3,-0.1 0.4,0.7 0.7,1.5 0.7,2.4 0,2 -1.4,3.7 -3.3,4.1 -0.6,10.1 -2.2,25.4 -6.9,31.2 0,0 0,-0.1 -0.1,-0.2 0.1,-0.8 0.2,-1.5 0.4,-2.4 0,0 8.3,-39.9 2.5,-47.9 0,0 12.4,5.7 17.5,-4.4 0,0 15.8,5.6 27.9,-3.6 0,0 17,15.6 39.5,5.4 0,0 -5.1,11.5 4.5,12.4 0,0 -6.6,19.2 -0.7,38.6 z" />
			</g>
			<path
   id="XMLID_95_"
   fill="#ac8457"
   d="m 671.6,586.9 c 0,0 -1.3,3.5 -5.8,3.2 -4.5,-0.3 -5.5,-8.6 -2.6,-10.9 0,0 5.5,-2.4 3.3,6.5 z" />
			<path
   id="XMLID_97_"
   fill="#ac8457"
   d="m 665.8,585.5 c 0,0 -1.3,3.5 -5.8,3.2 -4.5,-0.3 -5.5,-8.6 -2.6,-10.9 0,0 5.5,-2.4 3.3,6.5 z" />
			<path
   id="XMLID_98_"
   fill="#ac8457"
   d="m 661.1,584.6 c 0,0 -1.3,3.5 -5.8,3.2 -4.5,-0.3 -5.5,-8.6 -2.6,-10.9 0,0 5.5,-2.4 3.3,6.5 z" />
			<path
   id="XMLID_107_"
   fill="#ac8457"
   d="m 657.9,583.4 c 0,0 -1.3,3.5 -5.8,3.2 -4.5,-0.3 -5.5,-8.6 -2.6,-10.9 0,0 5.5,-2.4 3.3,6.5 z" />
			<path
   id="XMLID_162_"
   fill="#cbdf7b"
   d="m 606,400.2 c 0,8.6 -9.3,15.5 -20.8,15.5 -11,0 -20,-6.4 -20.7,-14.5 0,-0.3 -0.1,-0.7 -0.1,-1 0,-1.5 0.3,-2.9 0.8,-4.2 0.2,-0.5 0.4,-1 0.6,-1.4 3.7,-0.5 6,-0.5 6,-0.5 v 0 c 2.7,-0.6 5.5,-0.8 8.3,-0.8 h 10.7 c 3.4,0 6.6,0.4 9.7,1.2 1.1,0.2 2.6,0.5 4.3,0.8 0.1,0.2 0.2,0.4 0.2,0.5 0,0 0,0 0,0 0.7,1.4 1,2.9 1,4.4 z" />
			<path
   id="XMLID_356_"
   fill="#ac8457"
   d="m 573.4,393.7 c 0,0 -6.4,1.7 -4.5,9 1.9,7.3 20,11.8 29.3,2.9 9.3,-8.9 -1.3,-11.9 -1.3,-11.9 l -4.3,-1 c -4,-0.9 -8.1,-1 -12.1,-0.3 z" />
			<g
   id="XMLID_108_">
				<polygon
   id="XMLID_137_"
   fill="#ffffff"
   points="538,462.9 538,450.5 554.3,468.2 574.2,447.5 594,468.2 613.9,447.5 633.4,468.1 633.8,479.9 613.9,459.2 594,479.9 574.2,459.2 554.3,479.9 " />
			</g>
		</g>
		
		<g
   id="XMLID_503_">
			<path
   id="XMLID_210_"
   fill="#a7a9ac"
   d="m 317,436.8 c 0,0 0.8,-14.9 -4.2,-24 l 0.6,18.1 z" />
			<path
   id="XMLID_209_"
   fill="#59392c"
   d="m 371.8,389.1 c 0,0 -13.4,10.5 -17.8,70.5 l 14.7,4.1 z" />
			<path
   id="XMLID_208_"
   fill="#bc865a"
   d="m 309.8,468.5 c 0,0 -1.9,-5.5 1.7,-8.9 l 1.9,8.9 z" />
			<path
   id="XMLID_207_"
   fill="#111719"
   d="m 382.6,749.2 h -61.4 c 0.5,-1.3 1.5,-2.6 2.8,-3.8 10.9,-10 45.2,-16.1 45.2,-16.1 h 9 l 3.6,16.1 z" />
			<path
   id="XMLID_206_"
   fill="#9a5552"
   d="m 364.7,729.2 3.2,6.9 -6.5,1.9 -3.2,-7.5 c -0.1,0.1 2.3,-2.1 6.5,-1.3 z" />
			<path
   id="XMLID_205_"
   fill="#9a5552"
   d="m 356.8,731.2 3.2,6.9 -6.5,1.9 -3.2,-7.5 c -0.1,0.1 2.3,-2.2 6.5,-1.3 z" />
			<path
   id="XMLID_204_"
   fill="#9a5552"
   d="m 382.6,749.2 h -61.4 c 0.5,-1.3 1.5,-2.6 2.8,-3.8 h 57.8 z" />
			<path
   id="XMLID_203_"
   fill="#dba97f"
   d="m 368.1,729.4 10.1,0.4 c 0,0 -2.6,-9.3 -2.6,-19.3 l -10.4,0.5 z" />
			<path
   id="XMLID_202_"
   fill="#111719"
   d="m 432.9,749.2 h -61.4 c 0.5,-1.3 1.5,-2.6 2.8,-3.8 10.9,-10 45.2,-16.1 45.2,-16.1 h 9 l 3.6,16.1 z" />
			<path
   id="XMLID_201_"
   fill="#9a5552"
   d="m 415,729.2 3.2,6.9 -6.5,1.9 -3.2,-7.5 c -0.1,0.1 2.3,-2.1 6.5,-1.3 z" />
			<path
   id="XMLID_200_"
   fill="#9a5552"
   d="m 407.1,731.2 3.2,6.9 -6.5,1.9 -3.2,-7.5 c -0.1,0.1 2.3,-2.2 6.5,-1.3 z" />
			<path
   id="XMLID_199_"
   fill="#9a5552"
   d="m 432.9,749.2 h -61.4 c 0.5,-1.3 1.5,-2.6 2.8,-3.8 H 432 Z" />
			<path
   id="XMLID_198_"
   fill="#dba97f"
   d="m 418.4,729.4 10.1,0.4 c 0,0 -2.3,-9.3 -2.4,-19.3 l -10.4,0.5 z" />
			<path
   id="XMLID_197_"
   fill="#27100e"
   d="m 429.1,532.1 c 0,0 -13.9,88.3 0,189.3 h -23.6 c 0,0 -16.2,-113.2 -9.7,-170.3 z" />
			<path
   id="XMLID_196_"
   fill="#27100e"
   d="m 392.4,547.2 c -23.6,61.4 -6.8,174.1 -6.8,174.1 h -20.8 c -20.2,-99.7 0,-183.7 0,-183.7 z" />
			<path
   id="XMLID_193_"
   fill="#bcbec0"
   d="m 317,436.8 c 0,0 -2.3,-13.8 -16.2,-21.7 l 1,6.5 z" />
			<path
   id="XMLID_192_"
   fill="#27100e"
   d="m 437.9,522.7 c -16.4,61 -92.1,39.9 -83.9,-3.5 34.7,-17.6 70.4,-8.7 83.9,3.5 z" />
			<path
   id="XMLID_153_"
   fill="#c47c60"
   d="m 441.2,523.5 c -30.1,12 -66.5,8.3 -91.3,2.4 0,0 2.5,-1.8 6.3,-44.7 0.3,-3.3 0.6,-6.8 0.9,-10.6 0.2,-2.2 0.4,-4.5 0.5,-6.8 0.5,-6.2 1,-13 1.5,-20.4 0,-0.3 0,-0.5 0.1,-0.8 3,-43.6 8.9,-61.5 31.6,-60.7 l 10.7,0.4 c 25.8,-0.4 36.7,19.4 40.7,60.3 0.4,4.5 0.8,9.2 1.1,14.1 0.1,2.5 0.3,4.8 0.4,7.1 0.1,2.4 0.2,4.6 0.3,6.8 0.1,3.8 0.2,7.3 0.2,10.6 0.5,32 -3,42.3 -3,42.3 z" />
			<path
   id="XMLID_146_"
   fill="#8f5b46"
   d="m 443.8,463.7 h -86 c 0.5,-6.2 1,-13 1.5,-20.4 0,-0.3 0,-0.5 0.1,-0.8 h 83 c 0.4,4.5 0.8,9.2 1.1,14.1 0,2.5 0.2,4.8 0.3,7.1 z" />
			<path
   id="XMLID_145_"
   fill="#8f5b46"
   d="m 444.3,481.2 h -88 c 0.3,-3.3 0.6,-6.8 0.9,-10.6 H 444 c 0.2,3.8 0.2,7.3 0.3,10.6 z" />
			<path
   id="XMLID_161_"
   fill="#bcbec0"
   d="m 317,436.8 c 0,0 17.1,-21.5 53.3,-14.7 l 2.1,8.1 z" />
			<path
   id="XMLID_160_"
   fill="#d1d3d4"
   d="m 317,436.8 c 0,0 22,-21.1 55.8,-10.4 0,0 14.7,28.2 17,61.8 l -63.4,-17.7 -35.8,-50.2 4,-2.3 c -0.1,0.1 15.6,-0.1 22.4,18.8 z" />
			<path
   id="XMLID_159_"
   fill="#dba97f"
   d="m 407.8,382.5 c 0,0 5.7,1 0.7,6.6 -6.7,7.4 -17.4,22.4 -23.4,11.1 -7.3,-13.8 -0.3,-18.2 -0.3,-18.2 z" />
			<path
   id="XMLID_158_"
   fill="#005f71"
   d="m 385.9,488.2 1.2,-0.4 c 0,0 -5.9,-36.7 -17.5,-58.7 0,0 -32.1,-5.6 -50.6,10.2 0,0 -3.1,2.2 -5.3,-1.2 0,0 -6.5,-19.2 -23.2,-17.7 v 0.9 l 22.5,20.7 6.2,1.5 48.4,-10.2 z" />
			<path
   id="XMLID_157_"
   fill="#1a849a"
   d="m 369.1,430.7 c 0,0 17.4,41.1 19.7,81.3 0,0 -27,-5.7 -49.6,-3.4 l -19.9,-68.2 c 0,0 20.1,-16.2 49.8,-9.7 z" />
			<path
   id="XMLID_156_"
   fill="#007487"
   d="m 332.5,506.3 -19.1,-67.2 c 0,0 -7.7,-20 -22.9,-17.8 0,0 18.8,23.9 25.9,66.3 -0.1,0 8,4.8 16.1,18.7 z" />
			<path
   id="XMLID_144_"
   fill="#dba97f"
   d="m 393.9,488.2 c 0,0 -3.5,-8.8 -8.8,-10.8 l 2,10.4 c 0,0 -9.7,-7.3 -26.5,-2.8 0,0 -4.5,6.8 2.6,8.4 0,0 -4.8,19 25.5,19.9 0,0 4.2,0.1 9.5,-2.3 l 16.1,-1.8 -1.4,-17.1 c 0.1,0 -15.3,1.8 -19,-3.9 z" />
			<path
   id="XMLID_143_"
   fill="#59392c"
   d="m 419.6,386.4 c 0,0 20.6,12.1 32.2,33.3 0,0 22.3,29.7 26.2,81.5 0,0 -14.7,11.6 -63.6,11.3 l -3.3,-23.9 39.7,-3.6 c 0,0 -8.1,-43.1 -23.9,-62.9 0,0 -9.8,-21 -7.3,-35.7 z" />
			<path
   id="XMLID_140_"
   fill="#dba97f"
   d="m 310.1,467.3 c 0,0 5.1,-0.6 5.7,3.3 0.6,4 -1.2,3.6 -1.2,3.6 0,0 5.8,11.2 -0.7,12.5 -6.6,1.3 -9.5,-20.3 -3.8,-19.4 z" />
			<path
   id="XMLID_139_"
   fill="#3d97b8"
   d="m 339.2,508.6 c 0,0 -4.1,1.9 -6.7,-2.3 l -19.1,-67.2 c 0,0 2.7,3.4 5.9,1.3 z" />
			<g
   id="XMLID_96_">
				<path
   id="XMLID_359_"
   fill="#dba97f"
   d="m 441.9,339.5 v 0 c 5.6,0 10.1,-4.6 10.1,-10.1 v -12 c 0,-5.6 -4.6,-10.1 -10.1,-10.1 v 0 c -5.6,0 -10.1,4.6 -10.1,10.1 v 12 c 0,5.5 4.5,10.1 10.1,10.1 z" />
				<path
   id="XMLID_7_"
   fill="#dba97f"
   d="m 350.5,339.5 v 0 c 5.6,0 10.1,-4.6 10.1,-10.1 v -12 c 0,-5.6 -4.6,-10.1 -10.1,-10.1 v 0 c -5.6,0 -10.1,4.6 -10.1,10.1 v 12 c 0,5.5 4.5,10.1 10.1,10.1 z" />
				<path
   id="XMLID_358_"
   fill="#dba97f"
   d="m 385.3,391.5 h 17.4 c 3,0 5.4,-2.4 5.4,-5.4 v -24.9 c 0,-0.5 -0.4,-1 -1,-1 h -21.8 c -0.5,0 -1,0.4 -1,1 v 29.3 c 0,0.5 0.5,1 1,1 z" />
				<path
   id="XMLID_357_"
   fill="#eec19c"
   d="m 393.7,380.4 h 6.5 c 23,0 41.8,-18.8 41.8,-41.8 V 286 c 0,-20.4 -16.7,-37.2 -37.2,-37.2 h -17.1 c -20.4,0 -37.2,16.7 -37.2,37.2 v 51.2 c 0,23.7 19.4,43.2 43.2,43.2 z" />
				<path
   id="XMLID_355_"
   fill="#352312"
   d="m 374.1,351.2 c 2.6,3.1 5.3,5.4 7.8,7 10,6.5 19.3,3.5 25.5,-0.4 4.9,-3 7.9,-6.6 7.9,-6.6 -14.7,2.5 -41.2,0 -41.2,0 z" />
				<path
   id="XMLID_354_"
   fill="#352312"
   d="m 416.7,325 v 0 c 1.6,0 2.9,-1.3 2.9,-2.9 v -3.9 c 0,-1.6 -1.3,-2.9 -2.9,-2.9 v 0 c -1.6,0 -2.9,1.3 -2.9,2.9 v 3.9 c -0.1,1.6 1.2,2.9 2.9,2.9 z" />
				<path
   id="XMLID_353_"
   fill="#352312"
   d="m 373.6,325 v 0 c 1.6,0 2.9,-1.3 2.9,-2.9 v -3.9 c 0,-1.6 -1.3,-2.9 -2.9,-2.9 v 0 c -1.6,0 -2.9,1.3 -2.9,2.9 v 3.9 c 0,1.6 1.3,2.9 2.9,2.9 z" />
				<path
   id="XMLID_352_"
   fill="#5f3531"
   d="m 405.8,299.7 c 0,0 13.1,-7.6 25.1,4.3 l 2.6,-5.2 c 0,0 -9.1,-13.6 -27.6,-5.4 v 6.3 z" />
				<path
   id="XMLID_351_"
   fill="#5f3531"
   d="m 387.1,299.2 c 0,0 -12.5,-8.6 -25.3,2.4 l -2.1,-5.4 c 0,0 10.2,-12.9 28,-3.2 z" />
				<path
   id="XMLID_350_"
   fill="#dba97f"
   d="m 394.9,327.2 c 0,0 -9.1,10.3 3.3,12.2 0,0.1 -17.2,0.1 -3.3,-12.2 z" />
				<path
   id="XMLID_349_"
   fill="#be1e2d"
   d="m 382,358.2 c 10,6.5 19.3,3.5 25.5,-0.4 -2.8,-2.8 -7.4,-4.6 -12.6,-4.6 -5.4,0 -10.1,2 -12.9,5 z" />
				<path
   id="XMLID_348_"
   fill="#73403c"
   d="m 343.5,262.1 c 0,0 -4,24.4 2.2,46.3 l 4.8,-1.2 c 0,0 6.3,-15.4 5.4,-37.4 z" />
				<ellipse
   id="XMLID_347_"
   fill="#efcaac"
   cx="424.29999"
   cy="335"
   rx="7.5"
   ry="4.5" />
				<ellipse
   id="XMLID_346_"
   fill="#efcaac"
   cx="366.10001"
   cy="335"
   rx="7.5"
   ry="4.5" />
				<path
   id="XMLID_345_"
   fill="#ffffff"
   d="m 415.7,351 c 0,0 -8.6,1.8 -41.7,0 l 2.5,2.8 c 0,0 25,3.7 36.6,-0.2 -0.1,0 1.8,-1.5 2.6,-2.6 z" />
				<path
   id="XMLID_335_"
   fill="#73403c"
   d="m 334.1,266.4 c 6.6,13.4 27.1,10.9 60.7,3.4 33.5,-7.5 42.7,8.1 42.7,8.1 -0.4,23.5 4.4,29.3 4.4,29.3 1.4,1 2.7,1.2 3.5,1.2 0.7,0 1,-0.1 1,-0.1 0,0 9.9,-33.7 -2.1,-56.6 -14.3,-27.4 -60.2,-20.5 -70.2,-22 -10,-1.5 -11.2,7.5 -11.2,7.5 0,0 -6.6,-4.1 -13.9,1.5 -7,5.3 -0.4,14.2 0.2,14.9 -2.2,-2.7 -8.8,-2.5 -12.9,0.5 -3.2,2.3 -5.1,6.4 -2.2,12.3 z" />
				<path
   id="XMLID_334_"
   fill="#5f3531"
   d="m 334.1,266.4 c 6.6,13.4 27.1,10.9 60.7,3.4 33.5,-7.5 42.7,8.1 42.7,8.1 -0.4,23.5 4.4,29.3 4.4,29.3 1.4,1 2.7,1.2 3.5,1.2 -2.4,-5.6 -6.5,-18.4 -3.5,-35.9 0,0 -13,-19.7 -47.2,-11.5 -31.6,7.6 -61,5.3 -58.4,-7 -3.2,2.4 -5.1,6.5 -2.2,12.4 z" />
			</g>
			<g
   id="XMLID_497_">
				<polygon
   id="XMLID_219_"
   opacity="0.3"
   fill="#ffffff"
   points="437.3,322.8 433.5,331.5 428,335.6 419.5,337.3 410.2,335.9 404.3,331.5 400.4,321.2 400.4,314.5 403.3,311.5 415.5,308.8 424.8,308.8 437.3,312.7 " />
				<polygon
   id="XMLID_218_"
   opacity="0.3"
   fill="#ffffff"
   points="352.2,322.8 355.9,331.5 361.4,335.6 370,337.3 379.3,335.9 385.1,331.5 389.1,321.2 389.1,314.5 386.2,311.5 374,308.8 364.7,308.8 352.2,312.7 " />
				<path
   id="XMLID_498_"
   fill="#21170e"
   d="m 350.7,319.7 c 0.8,5.5 1.9,18.6 19.5,19.1 19.2,0.6 20.8,-16.3 20.8,-16.3 0,0 1.2,-3.2 2.7,-3.3 h 2.2 c 1.5,0.1 2.7,3.3 2.7,3.3 0,0 1.6,16.9 20.8,16.3 17.7,-0.5 18.8,-13.6 19.5,-19.1 0.8,-5.5 2.8,-4.3 2.5,-7.5 -0.3,-3.3 -6.1,-3 -6.1,-3 -19.8,-6.8 -35.8,3 -35.8,3 0,0 -2.2,1.1 -5,1.1 -1.2,0 -2.2,-0.2 -3.1,-0.4 -0.4,-0.2 -0.9,-0.5 -1.4,-0.7 0,0 -15.9,-9.8 -35.8,-3 0,0 -5.8,-0.3 -6.1,3 -0.2,3.3 1.8,2 2.6,7.5 z m 51.2,-5 c 1.3,-1.9 19,-9.4 32.6,-1.5 1.9,1.1 2.6,11 -2.9,18.2 -5.8,7.6 -22.2,4.7 -26.3,-0.9 -4.1,-5.8 -4.6,-13.8 -3.4,-15.8 z m -47,-1.5 c 13.7,-7.9 31.4,-0.4 32.6,1.5 1.3,1.9 0.7,10 -3.4,15.8 -4.1,5.7 -20.5,8.6 -26.3,0.9 -5.4,-7.2 -4.8,-17.1 -2.9,-18.2 z" />
			</g>
			<path
   id="XMLID_49_"
   fill="#20aac7"
   d="m 332.5,453.1 c 0,0 15.2,-7.1 30.4,-5.1 l 2.9,9.8 c 0,0 -19,-1 -29.8,4.2 z" />
		</g>
		<g
   id="XMLID_502_"
   transform="translate(-385.9)">
			<polygon
   id="XMLID_136_"
   fill="#eec19c"
   points="1130.6,729.2 1132.7,619.2 1112.5,619.2 1118.5,729.9 " />
			<polygon
   id="XMLID_135_"
   fill="#eec19c"
   points="1154.5,729.2 1152.4,619.2 1174.5,619.2 1166.1,730.5 " />
			<path
   id="XMLID_134_"
   fill="#eec19c"
   d="m 1177.5,398.4 c 0,0 15.4,-6.9 28.1,16.8 15.8,29.3 27.4,50.9 27.4,50.9 l 25.5,-41.2 14.1,9.6 c 0,0 -27.6,55.3 -43.6,55.3 -7.5,0 -39.5,-60.3 -39.5,-60.3 0,0 -13.7,-15.7 -12,-31.1 z" />
			<path
   id="XMLID_133_"
   fill="#2e3321"
   d="m 1190.8,533.4 c -21.3,61.9 -94,39 -91.2,0.6 34.1,-18.7 77.3,-12.3 91.2,-0.6 z" />
			<path
   id="XMLID_132_"
   fill="#eec19c"
   d="m 1098.3,434.7 -3.1,100.1 c 30,6.4 81.3,4.5 99.1,-1.6 l -2.3,-98.5 c 0,-22.8 -18.7,-41.5 -41.5,-41.5 h -10.7 c -22.9,0 -41.5,18.7 -41.5,41.5 z" />
			<path
   id="XMLID_127_"
   fill="#eec19c"
   d="m 1157.2,393.7 c 0,0 6.4,1.7 4.5,9 -1.9,7.3 -20,11.8 -29.3,2.9 -9.3,-8.9 1.3,-11.9 1.3,-11.9 z" />
			<path
   id="XMLID_119_"
   fill="#947249"
   d="m 1292.8,422.5 c 0,0 6.2,-10.7 5.5,-19.4 0,0 -5.2,-0.8 -6.6,4 0,0 -3.2,-3.2 -6.2,3.1 -3,6.3 -9.6,8 -11.9,7.4 l 1.5,6.4 z" />
			<path
   id="XMLID_118_"
   fill="#947249"
   d="m 1255.4,429 c 0,0 5.6,-10.1 12.2,-14.4 6.5,-4.3 7.4,-11.2 13,-7.7 5.5,3.5 -5,7.3 -4.6,15 0,0 13.2,3.9 17.5,-6.3 4.3,-10.2 9.8,-8.4 9.8,-8.4 0,0 -1.7,14.5 -8.2,18.9 -6.5,4.3 -23.2,7.1 -23.2,7.1 z" />
			<path
   id="XMLID_117_"
   fill="#2e3321"
   d="m 1135.1,749.2 h -61.4 c 0.5,-1.3 1.5,-2.6 2.8,-3.8 10.9,-10 45.2,-16.1 45.2,-16.1 h 9 l 3.6,16.1 z" />
			<path
   id="XMLID_116_"
   fill="#80bd6a"
   d="m 1117.2,729.2 3.2,6.9 -6.5,1.9 -3.2,-7.5 c -0.1,0.1 2.3,-2.1 6.5,-1.3 z" />
			<path
   id="XMLID_115_"
   fill="#80bd6a"
   d="m 1109.3,731.2 3.2,6.9 -6.5,1.9 -3.2,-7.5 c -0.1,0.1 2.3,-2.2 6.5,-1.3 z" />
			<path
   id="XMLID_114_"
   fill="#80bd6a"
   d="m 1135.1,749.2 h -61.4 c 0.5,-1.3 1.5,-2.6 2.8,-3.8 h 57.8 z" />
			<path
   id="XMLID_113_"
   fill="#2e3321"
   d="m 1150,749.2 h 61.4 c -0.5,-1.3 -1.5,-2.6 -2.8,-3.8 -10.9,-10 -45.2,-16.1 -45.2,-16.1 h -9 l -3.6,16.1 z" />
			<path
   id="XMLID_112_"
   fill="#80bd6a"
   d="m 1167.9,729.2 -3.2,6.9 6.5,1.9 3.2,-7.5 c 0.1,0.1 -2.3,-2.1 -6.5,-1.3 z" />
			<path
   id="XMLID_111_"
   fill="#80bd6a"
   d="m 1175.9,731.2 -3.2,6.9 6.5,1.9 3.2,-7.5 c 0,0.1 -2.4,-2.2 -6.5,-1.3 z" />
			<path
   id="XMLID_110_"
   fill="#80bd6a"
   d="m 1150,749.2 h 61.4 c -0.5,-1.3 -1.5,-2.6 -2.8,-3.8 h -57.8 z" />
			<path
   id="XMLID_109_"
   fill="#2e3321"
   d="m 1190.7,535.7 3.6,94.6 -49.6,-0.3 -2.1,-27 -1.1,27 -46.6,-0.6 4.6,-95.5 c 0,0.1 51.7,46 91.2,1.8 z" />
			<path
   id="XMLID_104_"
   fill="#eec19c"
   d="m 1111.4,398.4 -4.7,25.7 -40.3,55.9 28.6,39.9 -5.4,14 c -47,-47.6 -41.5,-56.9 -41.5,-56.9 7.8,-13 26.3,-38.8 41.3,-61.9 9.9,-15 22,-16.7 22,-16.7 z" />
			<path
   id="XMLID_103_"
   fill="#80bd6a"
   d="m 1126.3,394.1 c 0,0 -4.8,31.9 18.5,31.9 23.3,0 21,-31.9 21,-31.9 l 15.5,2.7 c 0,0 0.2,45.3 13.1,61.1 l 1.8,79.6 c 0,0 -43.1,13.9 -100.9,1.4 v -84.5 c 0,0 17.1,-8.1 14.4,-58.8 z" />
			<path
   id="XMLID_102_"
   fill="#eec19c"
   d="m 1095.1,519.9 c 0,0 1,-7.5 13.2,-7.8 12.2,-0.2 8.1,13.7 4.7,18.2 -3.4,4.5 -10.3,-1.7 -14,6.6 0,0 -4.1,2.2 -9.2,-3 -0.1,0 -7.5,-28.2 5.3,-14 z" />
			<path
   id="XMLID_101_"
   fill="#eec19c"
   d="m 1255.4,429 c 0,0 9.3,-9.2 20.5,-7.2 8.2,1.5 14.7,2.1 20.4,-11.4 0,0 2.1,-3.6 6.8,-3.3 0,0 -1.4,12.6 -6.7,17.6 -5.3,5 -24,9.6 -24,9.6 z" />
			<g
   id="XMLID_558_">
				<circle
   id="XMLID_100_"
   fill="#f15a29"
   cx="1273.6"
   cy="376"
   r="45.400002" />
				<path
   id="XMLID_99_"
   opacity="0.67"
   d="m 1275.2,354.1 c 2,-1.6 4.1,-3.1 6.2,-4.5 -0.4,-0.3 -0.8,-0.6 -1.2,-1 -0.7,-0.7 -1.4,-1.3 -2,-2 -2.5,-2.9 -3.5,-6 -2.7,-8.9 0.7,-2.8 0.1,-5.2 -1.1,-7.2 0.9,0 1.9,0.1 2.8,0.1 1,2.2 1.4,4.8 0.7,7.7 -0.6,2.1 0.2,4.3 2.2,6.7 1,1.1 2.2,2.2 3.5,3.2 5.8,-3.6 11.7,-6.4 17.5,-8.3 0.8,0.6 1.5,1.2 2.2,1.8 -5.8,1.7 -11.8,4.4 -17.6,8 5.9,3.6 13.7,5.8 19.4,5.2 3.5,-0.4 6.7,0.4 9.5,1.7 0.6,1.2 1.1,2.4 1.5,3.7 -2.9,-2 -6.6,-3.4 -10.7,-2.9 -6.6,0.8 -15.5,-1.9 -21.9,-6.1 -2,1.3 -4.1,2.8 -6.1,4.3 3.6,2.1 7.1,4.7 10.4,7.6 12.7,11.2 20.3,26.1 21.7,40.7 -0.6,0.8 -1.3,1.6 -1.9,2.4 -0.1,0.1 -0.2,0.2 -0.3,0.3 -0.7,-14.7 -8.1,-30.1 -21.1,-41.5 -3.4,-3 -7.1,-5.6 -10.9,-7.8 -2.4,1.9 -4.7,4 -6.9,6.2 6.6,7.2 9.6,16.5 8,25.7 -2,11.8 4.7,23.9 9.5,30.8 -0.8,0.2 -1.7,0.5 -2.5,0.6 -5,-7.3 -11.4,-19.5 -9.4,-31.8 1.4,-8.4 -1.3,-17 -7.4,-23.6 -1.5,1.5 -2.9,3 -4.3,4.6 -10.6,12 -18,25.4 -21.3,38.4 -0.7,-0.7 -1.3,-1.4 -1.9,-2.1 3.6,-12.9 11,-26.1 21.4,-37.9 1.4,-1.6 2.9,-3.2 4.4,-4.7 -5.3,-5 -11.9,-7.5 -17.9,-6.7 -6.4,0.8 -9.5,4.6 -12.8,8.7 -1.7,2.1 -3.6,4.4 -6,6.2 0.1,-1.2 0.3,-2.4 0.5,-3.6 1.3,-1.3 2.4,-2.7 3.6,-4.1 3.4,-4.2 7,-8.6 14.4,-9.5 6.7,-0.8 14.1,1.9 19.9,7.4 2.1,-2 4.2,-3.9 6.3,-5.7 -12,-6.3 -25.2,-8.3 -36.8,-5.8 0.7,-1 1.4,-1.9 2.1,-2.8 12.1,-2.3 25.2,0.1 37,6.5 z" />
			</g>
			<path
   id="XMLID_87_"
   fill="#b8d987"
   d="m 1128,423.3 c -6.8,-8.3 -6.6,-21.7 -5.9,-28.9 l 2,-0.2 c -0.7,6.8 -0.9,19.9 5.5,27.8 3.5,4.3 8.5,6.5 15,6.5 6.6,0 11.9,-2.1 15.8,-6.3 7.2,-8.1 7.5,-21.8 7.2,-27.9 l 2,0.3 c 0.3,6.5 -0.2,20.3 -7.8,28.8 -4.1,4.6 -9.8,7 -16.9,7 -0.1,0 -0.2,0 -0.4,0 -7.1,0 -12.7,-2.4 -16.5,-7.1 z" />
			<path
   id="XMLID_86_"
   fill="#b8d987"
   d="m 1177.7,396.1 1.9,0.3 c -0.4,11.2 -0.6,49.4 14.7,63.6 l 0.1,2.6 c -17.7,-14 -17.2,-55 -16.7,-66.5 z" />
			<path
   id="XMLID_85_"
   fill="#b8d987"
   d="m 1095.2,456.4 c 18.3,-9.1 16.7,-51.4 16.1,-61.1 l 1.9,-0.2 c 0.7,10.2 2.5,54.5 -18,63.4 z" />
			<path
   id="XMLID_84_"
   fill="#252a26"
   d="m 1188.3,515.4 c 0,0 7,-3.6 7,-12.6 0,0 49.9,3.9 41.8,64.7 0,0 -3.6,20.5 -28.5,21 0,0 16.9,-20.7 7.5,-44.5 -9.3,-23.8 -27.8,-28.6 -27.8,-28.6 z" />
			<path
   id="XMLID_83_"
   fill="#353a36"
   d="m 1177.4,524.7 11,-9.3 c 0,0 21,3.9 29.7,26.2 8.7,22.3 0.8,42.7 -7.2,46.4 -8,3.7 -33.9,-11.2 -33.5,-63.3 z" />
			<path
   id="XMLID_82_"
   fill="#252a26"
   d="m 1133.7,393.7 c 0,0 19.6,79.3 71.5,150.3 0,0 -0.8,6.4 -10.8,6.6 0,0 -37.7,-42.1 -72.4,-156.2 0,0 7.3,-2.1 11.7,-0.7 z" />
			<path
   id="XMLID_559_"
   fill="#dba97f"
   d="m 1189.8,342 v 0 c -5.6,0.5 -10.5,-3.6 -11,-9.2 l -1.1,-11.9 c -0.5,-5.6 3.6,-10.5 9.2,-11 v 0 c 5.6,-0.5 10.5,3.6 11,9.2 l 1.1,11.9 c 0.5,5.6 -3.6,10.5 -9.2,11 z" />
			<path
   id="XMLID_555_"
   fill="#3d2613"
   d="m 1194.1,319.4 c 0,0 8.1,-18.1 -0.2,-49.1 l -7.4,2.8 z" />
			<polygon
   id="XMLID_570_"
   fill="#eec19c"
   points="1158.5,377 1157.4,364.1 1132.7,366.5 1132.8,370.1 1133.4,387.6 1133.7,393.7 1160.1,397.4 1159.5,390.3 " />
			<path
   id="XMLID_566_"
   fill="#dba97f"
   d="m 1132.8,370.1 0.6,17.5 c 11.7,4.4 20.7,3.9 26.1,2.7 l -1.1,-13.3 c -6.8,-5.3 -16,-9.6 -16,-9.6 0,0 -4.6,1 -9.6,2.7 z" />
			<path
   id="XMLID_548_"
   fill="#eec19c"
   d="m 1164.2,385.4 -5.8,0.5 c -24.1,2.2 -51.2,-12.2 -53,-32.6 l -5.1,-56.9 c -1.8,-20.4 13.3,-38.5 33.7,-40.3 l 17,-1.5 c 20.4,-1.8 38.5,13.3 40.3,33.7 l 4.6,50.9 c 2.1,23.6 -8.1,44.1 -31.7,46.2 z" />
			<path
   id="XMLID_542_"
   fill="#352312"
   d="m 1139.7,332 v 0 c -1.6,0.1 -3.1,-1.1 -3.2,-2.7 l -0.3,-3.9 c -0.1,-1.6 1.1,-3.1 2.7,-3.2 v 0 c 1.6,-0.1 3.1,1.1 3.2,2.7 l 0.3,3.9 c 0.1,1.7 -1.1,3.1 -2.7,3.2 z" />
			<path
   id="XMLID_539_"
   fill="#352312"
   d="m 1182.6,328.2 v 0 c -1.6,0.1 -3.1,-1.1 -3.2,-2.7 l -0.3,-3.9 c -0.1,-1.6 1.1,-3.1 2.7,-3.2 v 0 c 1.6,-0.1 3.1,1.1 3.2,2.7 l 0.3,3.9 c 0.1,1.6 -1.1,3.1 -2.7,3.2 z" />
			<path
   id="XMLID_535_"
   fill="#dba97f"
   d="m 1165.6,331.9 c 0,0 10,9.4 -2.2,12.5 0,0 17.2,-1.6 2.2,-12.5 z" />
			
				<ellipse
   id="XMLID_534_"
   transform="matrix(0.996,-0.08918384,0.08918384,0.996,-26.0324,102.4601)"
   fill="#efcaac"
   cx="1133.6"
   cy="342.5"
   rx="7.5"
   ry="4.5" />
			
				<ellipse
   id="XMLID_530_"
   transform="matrix(0.996,-0.08918384,0.08918384,0.996,-25.386,107.2568)"
   fill="#efcaac"
   cx="1187.6"
   cy="337.70001"
   rx="6.8000002"
   ry="4.5" />
			<path
   id="XMLID_529_"
   fill="#352312"
   d="m 1179.7,355.5 c -2.4,3 -4.6,5.4 -6.8,7.2 -8.5,7 -15.3,5.2 -19.8,1.7 -4.4,-3.3 -6.8,-8.1 -6.8,-8.1 11.8,7 33.4,-0.8 33.4,-0.8 z" />
			<path
   id="XMLID_525_"
   fill="#be1e2d"
   d="m 1172.9,362.6 c -8.5,7 -15.3,5.2 -19.8,1.7 1.9,-1.8 4.6,-3.2 7.6,-3.9 4.8,-1 9.4,-0.1 12.2,2.2 z" />
			<path
   id="XMLID_521_"
   fill="#492d14"
   d="m 1153.2,314.3 c 0,0 -11.4,-10 -25.4,-0.6 l -1.5,-5.6 c 0,0 11.6,-11.6 28.1,0.1 z" />
			<path
   id="XMLID_513_"
   fill="#492d14"
   d="m 1171.2,310.3 c 0,0 6.5,-13.1 19.2,-5.3 l 0.3,-5.2 c 0,0 -11.9,-8.1 -21.8,4.7 z" />
			<path
   id="XMLID_512_"
   fill="#603913"
   d="m 1205.2,256.2 c 2.4,19 -24.4,33.6 -50.2,25.7 -19.7,-6 -40.7,5.3 -40.7,5.3 5.2,30.8 2.4,46.8 2.2,47.9 0,0 0,0.1 0,0.1 -3.3,-15.5 -12.7,-17.7 -12.7,-17.7 -5.6,0.3 1.6,35.8 1.6,35.8 -34.9,-41.9 -16.5,-77.5 -16.5,-77.5 0,0 -11,1.7 -9.7,-5.6 1.3,-7.2 11.2,0.4 11.2,0.4 0,0 -5.4,-11.2 -0.5,-11.9 4.8,-0.7 3.5,8.2 3.4,8.8 16.5,-43.8 91.8,-24 91.8,-24 l -5.4,1.1 c 11.1,7.2 25.3,-5.3 25.3,-5.3 4.7,15.9 -10,24.6 -10,24.6 6.5,-1.6 10.2,-7.7 10.2,-7.7 z" />
			<path
   id="XMLID_509_"
   fill="#eec19c"
   d="m 1105.1,349.6 v 0 c -5.6,0.5 -10.5,-3.6 -11,-9.2 l -1.1,-11.9 c -0.5,-5.6 3.6,-10.5 9.2,-11 v 0 c 5.6,-0.5 10.5,3.6 11,9.2 l 1.1,11.9 c 0.4,5.6 -3.7,10.5 -9.2,11 z" />
			<path
   id="XMLID_508_"
   fill="#dba97f"
   d="m 1109.4,342 c 0,0 2,-17.2 -6.6,-19.1 0,0 4.2,5.2 2.7,9.6 0,0 -3,0.5 -2.6,5.8 0.3,5.3 5.2,5.8 6.5,3.7 z" />
			<path
   id="XMLID_507_"
   fill="#492d14"
   d="m 1205.2,256.2 c 2.4,19 -24.4,33.6 -50.2,25.7 -19.7,-6 -40.7,5.3 -40.7,5.3 5.2,30.8 2.4,46.8 2.2,47.9 -0.1,-1.8 -0.9,-41.6 -12.2,-51.2 0,0 26.1,-20.6 48.2,-13.8 23.1,7.1 45.4,4 52.7,-13.9 z" />
			<polygon
   id="XMLID_88_"
   fill="#ffffff"
   points="1152.4,697 1154.1,731 1167.2,731 1169.6,697 " />
			<polygon
   id="XMLID_90_"
   fill="#ffffff"
   points="1132.7,697 1130.9,731 1117.9,731 1115.4,697 " />
		</g>
		
		
	</g>
</g>
</svg>
